<svg width="24" height="21" viewBox="0 0 24 21" fill="none" xmlns="http://www.w3.org/2000/svg">
<path d="M19 2.625H5C3.9 2.625 3 3.4125 3 4.375V16.625C3 17.5875 3.9 18.375 5 18.375H19C20.1 18.375 21 17.5875 21 16.625V4.375C21 3.4125 20.1 2.625 19 2.625ZM8 14.875C7.45 14.875 7 14.4812 7 14V9.625C7 9.14375 7.45 8.75 8 8.75C8.55 8.75 9 9.14375 9 9.625V14C9 14.4812 8.55 14.875 8 14.875ZM12 14.875C11.45 14.875 11 14.4812 11 14V7C11 6.51875 11.45 6.125 12 6.125C12.55 6.125 13 6.51875 13 7V14C13 14.4812 12.55 14.875 12 14.875ZM16 14.875C15.45 14.875 15 14.4812 15 14V12.25C15 11.7688 15.45 11.375 16 11.375C16.55 11.375 17 11.7688 17 12.25V14C17 14.4812 16.55 14.875 16 14.875Z" fill="black"/>
</svg>
